<svg class="heroArrow" viewBox="0 0 40 40" fill="none" xmlns="http://www.w3.org/2000/svg">
<path d="M22.654 9.41767C22.0682 8.83189 21.1184 8.83189 20.5327 9.41767C19.9469 10.0035 19.9469 10.9532 20.5327 11.539L22.654 9.41767ZM31.115 20L32.1757 21.0607C32.457 20.7794 32.615 20.3978 32.615 20C32.615 19.6022 32.457 19.2206 32.1757 18.9393L31.115 20ZM20.5327 28.461C19.9469 29.0468 19.9469 29.9965 20.5327 30.5823C21.1184 31.1681 22.0682 31.1681 22.654 30.5823L20.5327 28.461ZM8.92499 18.5C8.09656 18.5 7.42499 19.1716 7.42499 20C7.42499 20.8284 8.09656 21.5 8.92499 21.5V18.5ZM31.0867 21.5C31.9151 21.5 32.5867 20.8284 32.5867 20C32.5867 19.1716 31.9151 18.5 31.0867 18.5V21.5ZM20.5327 11.539L30.0543 21.0607L32.1757 18.9393L22.654 9.41767L20.5327 11.539ZM30.0543 18.9393L20.5327 28.461L22.654 30.5823L32.1757 21.0607L30.0543 18.9393ZM8.92499 21.5H31.0867V18.5H8.92499V21.5Z" fill="white"/>
</svg>
