<svg class="socialMediaIcon" viewBox="0 0 40 40" fill="none" xmlns="http://www.w3.org/2000/svg">
<path d="M22.3537 36.6666H16.7108C15.7682 36.6666 15.0015 35.9051 15.0015 34.9689V22.3266H11.7093C10.7667 22.3266 10 21.5648 10 20.6289V15.2117C10 14.2755 10.7667 13.5139 11.7093 13.5139H15.0015V10.8011C15.0015 8.11137 15.8518 5.82293 17.4603 4.18364C19.076 2.53687 21.334 1.66663 23.9901 1.66663L28.2937 1.67357C29.2346 1.67517 30 2.43674 30 3.37134V8.40109C30 9.3373 29.2335 10.0989 28.2913 10.0989L25.3937 10.0999C24.51 10.0999 24.285 10.2759 24.2369 10.3298C24.1576 10.4193 24.0632 10.6722 24.0632 11.3705V13.5136H28.0735C28.3754 13.5136 28.6679 13.5876 28.9193 13.727C29.4615 14.0279 29.7986 14.597 29.7986 15.2119L29.7965 20.6291C29.7965 21.5648 29.0298 22.3264 28.0872 22.3264H24.0632V34.9689C24.0632 35.9051 23.2962 36.6666 22.3537 36.6666V36.6666ZM17.0672 34.6148H21.9972V21.4081C21.9972 20.783 22.5093 20.2745 23.1384 20.2745H27.7307L27.7326 15.5657H23.1382C22.5091 15.5657 21.9972 15.0573 21.9972 14.4322V11.3705C21.9972 10.5688 22.0792 9.6572 22.6884 8.972C23.4245 8.14368 24.5845 8.04808 25.3932 8.04808L27.9342 8.04701V3.72488L23.9885 3.71848C19.7199 3.71848 17.0672 6.43256 17.0672 10.8011V14.4322C17.0672 15.0571 16.5554 15.5657 15.9263 15.5657H12.0658V20.2745H15.9263C16.5554 20.2745 17.0672 20.783 17.0672 21.4081V34.6148ZM28.2896 3.72542H28.2899H28.2896Z" fill="#3C4BDC"/>
</svg>
