<svg class="socialMediaIcon" viewBox="0 0 40 40" fill="none" xmlns="http://www.w3.org/2000/svg">
<path d="M36.5845 13.1335C36.5064 11.3624 36.22 10.1447 35.8096 9.08962C35.3863 7.96966 34.735 6.96696 33.8817 6.13341C33.048 5.28689 32.0385 4.6291 30.9313 4.21245C29.8699 3.80217 28.6583 3.51575 26.8869 3.43766C25.1022 3.35296 24.5356 3.33337 20.0091 3.33337C15.4826 3.33337 14.916 3.35296 13.1379 3.43105C11.3665 3.50914 10.1486 3.79581 9.09354 4.20584C7.97311 4.6291 6.97021 5.28027 6.13651 6.13341C5.28982 6.96696 4.63217 7.97627 4.21519 9.08326C3.80482 10.1447 3.51835 11.3557 3.44025 13.1269C3.35553 14.9112 3.33594 15.4777 3.33594 20.0033C3.33594 24.529 3.35553 25.0955 3.43363 26.8732C3.51174 28.6443 3.79846 29.862 4.20883 30.9171C4.63217 32.037 5.28982 33.0397 6.13651 33.8733C6.97021 34.7198 7.97972 35.3776 9.08692 35.7942C10.1486 36.2045 11.3598 36.4909 13.1316 36.569C14.9094 36.6474 15.4762 36.6667 20.0027 36.6667C24.5292 36.6667 25.0958 36.6474 26.8739 36.569C28.6454 36.4909 29.8632 36.2045 30.9183 35.7942C33.1589 34.9281 34.9304 33.157 35.7966 30.9171C36.2067 29.8556 36.4935 28.6443 36.5716 26.8732C36.6497 25.0955 36.6693 24.529 36.6693 20.0033C36.6693 15.4777 36.6627 14.9112 36.5845 13.1335ZM33.5822 26.743C33.5105 28.3709 33.237 29.25 33.009 29.836C32.4488 31.2882 31.2961 32.4407 29.8436 33.0008C29.2575 33.2287 28.3719 33.5022 26.75 33.5736C24.9915 33.652 24.4641 33.6713 20.0157 33.6713C15.5673 33.6713 15.0333 33.652 13.2812 33.5736C11.6529 33.5022 10.7737 33.2287 10.1875 33.0008C9.46473 32.7337 8.80682 32.3105 8.2728 31.757C7.7192 31.2165 7.29586 30.5653 7.02873 29.8426C6.80078 29.2566 6.52728 28.3709 6.45579 26.7496C6.37743 24.9914 6.3581 24.4639 6.3581 20.0163C6.3581 15.5688 6.37743 15.0349 6.45579 13.2833C6.52728 11.6554 6.80078 10.7763 7.02873 10.1903C7.29586 9.46735 7.7192 8.80982 8.27942 8.27566C8.81979 7.72216 9.47109 7.2989 10.1941 7.03208C10.7803 6.80417 11.6662 6.53072 13.2878 6.45899C15.0463 6.3809 15.5739 6.36132 20.0221 6.36132C24.4771 6.36132 25.0045 6.3809 26.7566 6.45899C28.3848 6.53072 29.2641 6.80417 29.8503 7.03208C30.573 7.2989 31.231 7.72216 31.765 8.27566C32.3186 8.81618 32.7419 9.46735 33.009 10.1903C33.237 10.7763 33.5105 11.6617 33.5822 13.2833C33.6603 15.0415 33.6799 15.5688 33.6799 20.0163C33.6799 24.4639 33.6603 24.9848 33.5822 26.743Z" fill="#3C4BDC"/>
<path d="M19.9974 11.6666C15.3968 11.6666 11.6641 15.3991 11.6641 20C11.6641 24.6008 15.3968 28.3333 19.9974 28.3333C24.5983 28.3333 28.3307 24.6008 28.3307 20C28.3307 15.3991 24.5983 11.6666 19.9974 11.6666ZM19.9974 25.4056C17.0128 25.4056 14.5918 22.9848 14.5918 20C14.5918 17.0151 17.0128 14.5943 19.9974 14.5943C22.9823 14.5943 25.403 17.0151 25.403 20C25.403 22.9848 22.9823 25.4056 19.9974 25.4056Z" fill="#3C4BDC"/>
<path d="M31.6641 10.8334C31.6641 12.214 30.5447 13.3334 29.1639 13.3334C27.7834 13.3334 26.6641 12.214 26.6641 10.8334C26.6641 9.45247 27.7834 8.33337 29.1639 8.33337C30.5447 8.33337 31.6641 9.45247 31.6641 10.8334Z" fill="#3C4BDC"/>
</svg>
