<svg width="768" height="793" viewBox="0 0 768 793" fill="none" xmlns="http://www.w3.org/2000/svg">
<path d="M656.254 -61.4048C621.331 -61.4048 590.081 -39.5618 578.096 -6.76531L418.817 428.095H618.754C653.677 428.095 684.927 406.252 696.911 373.455L856.19 -61.4048L656.254 -61.4048Z" fill="url(#paint0_linear_210_241)"/>
<path d="M437.44 -61.4048L237.503 -61.4048C202.58 -61.4048 171.33 -39.5618 159.346 -6.76531L0.0667882 428.095H258.187L437.44 -61.4048Z" fill="url(#paint1_linear_210_241)"/>
<path d="M0 428.096L178.356 914.971C178.934 916.547 180.434 917.595 182.112 917.595H437.437L258.184 428.096H0Z" fill="url(#paint2_linear_210_241)"/>
<defs>
<linearGradient id="paint0_linear_210_241" x1="428.095" y1="-91.5" x2="428.095" y2="564.5" gradientUnits="userSpaceOnUse">
<stop stop-color="#3C4BDC"/>
<stop offset="1" stop-color="white"/>
</linearGradient>
<linearGradient id="paint1_linear_210_241" x1="428.095" y1="-91.5" x2="428.095" y2="564.5" gradientUnits="userSpaceOnUse">
<stop stop-color="#3C4BDC"/>
<stop offset="1" stop-color="white"/>
</linearGradient>
<linearGradient id="paint2_linear_210_241" x1="428.095" y1="-91.5" x2="428.095" y2="564.5" gradientUnits="userSpaceOnUse">
<stop stop-color="#3C4BDC"/>
<stop offset="1" stop-color="white"/>
</linearGradient>
</defs>
</svg>
