<svg class="logoMobile" viewBox="0 0 170 56" fill="none" xmlns="http://www.w3.org/2000/svg">
<path d="M37.1784 -3.8147e-06C35.2 -3.8147e-06 33.4296 1.23745 32.7506 3.09546L23.7271 27.7314H35.054C37.0324 27.7314 38.8028 26.4939 39.4818 24.6359L48.5053 -3.8147e-06H37.1784Z" fill="white"/>
<path d="M24.7819 -3.8147e-06H13.455C11.4766 -3.8147e-06 9.70617 1.23745 9.02722 3.09546L0.00366211 27.7314H14.6268L24.7819 -3.8147e-06Z" fill="white"/>
<path d="M0 27.7314L9.19752 52.8386C9.77489 54.4148 11.2749 55.4627 12.9534 55.4627H24.7819L14.6268 27.7314H0Z" fill="white"/>
<path d="M91.3781 15.3166C91.3781 21.1936 87.2715 24.9607 81.2814 24.9607H67.3445V32.0058H60.5623V5.63595H81.2814C87.2752 5.63595 91.3781 9.43956 91.3781 15.3166ZM84.5995 15.3166C84.5995 11.3231 81.4347 11.3231 79.4015 11.3231H67.3482V19.2698H79.4015C81.4347 19.2735 84.5995 19.2735 84.5995 15.3166Z" fill="white"/>
<path d="M113.378 17.8791H130.104V32.0058H125.096L124.793 27.8627C122.307 30.5748 118.35 32.3817 112.74 32.3817C103.022 32.3817 97.0688 27.5597 97.0688 18.8209C97.0688 10.082 103.019 5.25997 113.868 5.25997C124.413 5.25997 129.688 9.36656 130.104 15.9189H123.212C122.836 13.9221 121.026 10.9471 113.871 10.9471C105.056 10.9471 103.851 15.8057 103.851 18.9705C103.851 22.1718 105.096 27.1436 113.871 27.1436C120.427 27.1436 123.063 24.2817 123.212 22.285H113.382V17.8791H113.378Z" fill="white"/>
<path d="M152.331 17.8791H169.057V32.0058H164.049L163.746 27.8627C161.26 30.5748 157.303 32.3817 151.692 32.3817C141.975 32.3817 136.021 27.5597 136.021 18.8209C136.021 10.082 141.971 5.25997 152.824 5.25997C163.37 5.25997 168.644 9.36656 169.06 15.9189H162.169C161.793 13.9221 159.982 10.9471 152.827 10.9471C144.012 10.9471 142.807 15.8057 142.807 18.9705C142.807 22.1718 144.052 27.1436 152.827 27.1436C159.383 27.1436 162.019 24.2817 162.169 22.285H152.338V17.8791H152.331Z" fill="white"/>
<path d="M62.9823 50.188C62.0077 49.6514 61.2411 48.9067 60.6899 47.954C60.1351 47.0013 59.8577 45.939 59.8577 44.7563C59.8577 43.5773 60.1351 42.5114 60.6899 41.5623C61.2448 40.6096 62.0114 39.8649 62.9933 39.3283C63.9752 38.7917 65.0703 38.5216 66.2859 38.5216C67.1948 38.5216 68.038 38.6749 68.8082 38.9779C69.5784 39.2809 70.2318 39.7262 70.7684 40.3103L69.9471 41.1316C68.9907 40.1642 67.7825 39.6787 66.3224 39.6787C65.355 39.6787 64.4717 39.9014 63.6795 40.3431C62.8838 40.7884 62.2632 41.3944 61.8142 42.1646C61.3652 42.9348 61.1389 43.7999 61.1389 44.7563C61.1389 45.7127 61.3652 46.5778 61.8142 47.348C62.2632 48.1183 62.8838 48.7242 63.6795 49.1695C64.4717 49.6149 65.355 49.8339 66.3224 49.8339C67.7934 49.8339 69.0017 49.3448 69.9471 48.3628L70.7684 49.1842C70.2318 49.7682 69.5748 50.2135 68.7973 50.5238C68.0198 50.8341 67.1765 50.9874 66.2676 50.9874C65.0521 50.9911 63.957 50.7246 62.9823 50.188Z" fill="white"/>
<path d="M76.0211 50.3705C75.3093 49.969 74.7472 49.4105 74.3383 48.6987C73.9295 47.9869 73.7251 47.1801 73.7251 46.2822C73.7251 45.3842 73.9295 44.5775 74.3383 43.8657C74.7472 43.1538 75.3057 42.599 76.0211 42.2011C76.7329 41.8032 77.5324 41.6061 78.4194 41.6061C79.3064 41.6061 80.1058 41.8032 80.8176 42.2011C81.5295 42.599 82.0879 43.1538 82.4895 43.8657C82.891 44.5775 83.0954 45.3842 83.0954 46.2822C83.0954 47.1801 82.8947 47.9869 82.4895 48.6987C82.0879 49.4105 81.5295 49.969 80.8176 50.3705C80.1058 50.772 79.3064 50.9764 78.4194 50.9764C77.5324 50.9764 76.7329 50.772 76.0211 50.3705ZM80.1788 49.4251C80.6972 49.1257 81.1024 48.706 81.3944 48.1548C81.6864 47.6072 81.8324 46.983 81.8324 46.2822C81.8324 45.5813 81.6864 44.9571 81.3944 44.4095C81.1024 43.862 80.6972 43.4386 80.1788 43.1393C79.6605 42.8399 79.0728 42.6939 78.4194 42.6939C77.766 42.6939 77.1783 42.8436 76.6599 43.1393C76.1416 43.4386 75.7328 43.862 75.4334 44.4095C75.1341 44.9571 74.9881 45.5813 74.9881 46.2822C74.9881 46.983 75.1378 47.6072 75.4334 48.1548C75.7291 48.7023 76.1379 49.1257 76.6599 49.4251C77.1783 49.7244 77.766 49.8704 78.4194 49.8704C79.0728 49.8704 79.6605 49.7207 80.1788 49.4251Z" fill="white"/>
<path d="M94.8717 42.6136C95.5543 43.2853 95.8974 44.2635 95.8974 45.5484V50.8888H94.6526V45.6689C94.6526 44.7125 94.4117 43.9825 93.9335 43.4787C93.4553 42.975 92.7727 42.7268 91.8857 42.7268C90.8928 42.7268 90.108 43.0224 89.5313 43.6101C88.9545 44.1978 88.6625 45.0155 88.6625 46.0522V50.8852H87.4177V41.6755H88.6077V43.3729C88.9472 42.8107 89.4145 42.3763 90.0168 42.0697C90.6191 41.7594 91.3163 41.6061 92.1084 41.6061C93.2692 41.6061 94.189 41.9419 94.8717 42.6136Z" fill="white"/>
<path d="M101.387 50.6516C100.705 50.4362 100.172 50.1661 99.7847 49.8376L100.347 48.8556C100.73 49.1586 101.216 49.4068 101.8 49.6003C102.384 49.7937 102.99 49.8887 103.621 49.8887C104.461 49.8887 105.085 49.7572 105.486 49.4944C105.888 49.2316 106.089 48.8593 106.089 48.3811C106.089 48.0416 105.979 47.7751 105.757 47.5853C105.534 47.3919 105.253 47.2458 104.917 47.1473C104.578 47.0487 104.129 46.9502 103.566 46.8589C102.818 46.7202 102.219 46.5778 101.763 46.4318C101.307 46.2858 100.92 46.0376 100.599 45.6872C100.277 45.3367 100.117 44.8512 100.117 44.2343C100.117 43.4641 100.438 42.8326 101.081 42.3435C101.723 41.8543 102.617 41.6098 103.76 41.6098C104.355 41.6098 104.95 41.6901 105.545 41.847C106.14 42.004 106.629 42.2121 107.016 42.4676L106.472 43.4641C105.713 42.9385 104.807 42.6757 103.756 42.6757C102.96 42.6757 102.365 42.8144 101.96 43.0954C101.555 43.3765 101.354 43.7452 101.354 44.1978C101.354 44.5483 101.467 44.8293 101.697 45.0374C101.924 45.2491 102.208 45.4024 102.548 45.501C102.887 45.5995 103.355 45.7018 103.95 45.8076C104.683 45.9463 105.275 46.0887 105.72 46.2274C106.162 46.3661 106.541 46.607 106.859 46.9465C107.177 47.286 107.33 47.7532 107.33 48.3482C107.33 49.1549 106.994 49.7937 106.322 50.2646C105.651 50.7355 104.72 50.9728 103.53 50.9728C102.785 50.9764 102.07 50.8669 101.387 50.6516Z" fill="white"/>
<path d="M119.712 41.6755V50.8852H118.522V49.2024C118.197 49.7646 117.744 50.1989 117.175 50.5056C116.602 50.8158 115.948 50.9691 115.214 50.9691C114.014 50.9691 113.064 50.6333 112.371 49.9617C111.677 49.29 111.327 48.3081 111.327 47.0122V41.6718H112.572V46.8918C112.572 47.8591 112.809 48.5964 113.291 49.0965C113.769 49.6003 114.452 49.8485 115.339 49.8485C116.306 49.8485 117.072 49.5528 117.635 48.9651C118.197 48.3774 118.474 47.5561 118.474 46.5048V41.6718H119.712V41.6755Z" fill="white"/>
<path d="M124.983 37.8939H126.228V50.8889H124.983V37.8939Z" fill="white"/>
<path d="M136.364 50.3267C136.131 50.5384 135.842 50.699 135.496 50.8085C135.149 50.918 134.791 50.9764 134.419 50.9764C133.554 50.9764 132.889 50.7428 132.422 50.2756C131.955 49.8084 131.721 49.1477 131.721 48.2971V42.7268H130.075V41.6755H131.721V39.6605H132.966V41.6755H135.769V42.7268H132.966V48.2241C132.966 48.7717 133.105 49.1914 133.378 49.4762C133.652 49.7609 134.046 49.9069 134.561 49.9069C134.817 49.9069 135.065 49.8667 135.306 49.7828C135.547 49.7025 135.751 49.5857 135.926 49.4324L136.364 50.3267Z" fill="white"/>
<path d="M140.394 39.3977C140.219 39.2225 140.132 39.0107 140.132 38.7662C140.132 38.5325 140.219 38.3281 140.394 38.1529C140.57 37.9777 140.785 37.8901 141.044 37.8901C141.303 37.8901 141.515 37.974 141.694 38.1456C141.873 38.3172 141.957 38.518 141.957 38.7479C141.957 39.0034 141.869 39.2225 141.694 39.3977C141.519 39.5729 141.303 39.6605 141.044 39.6605C140.785 39.6605 140.57 39.5729 140.394 39.3977ZM140.409 41.6755H141.654V50.8852H140.409V41.6755Z" fill="white"/>
<path d="M154.36 42.6136C155.043 43.2853 155.386 44.2635 155.386 45.5484V50.8888H154.141V45.6689C154.141 44.7125 153.9 43.9825 153.422 43.4787C152.944 42.975 152.261 42.7268 151.374 42.7268C150.382 42.7268 149.597 43.0224 149.02 43.6101C148.443 44.2015 148.151 45.0155 148.151 46.0522V50.8852H146.906V41.6755H148.096V43.3729C148.436 42.8107 148.903 42.3763 149.506 42.0697C150.108 41.7594 150.805 41.6061 151.597 41.6061C152.754 41.6061 153.674 41.9419 154.36 42.6136Z" fill="white"/>
<path d="M169.111 41.6755V49.7645C169.111 51.3305 168.728 52.4877 167.965 53.2396C167.202 53.9916 166.049 54.3676 164.508 54.3676C163.658 54.3676 162.847 54.2435 162.084 53.9916C161.318 53.7397 160.697 53.393 160.219 52.9513L160.851 52.0058C161.292 52.4037 161.833 52.7103 162.471 52.933C163.107 53.1557 163.775 53.2652 164.475 53.2652C165.643 53.2652 166.501 52.9951 167.049 52.4512C167.596 51.9073 167.87 51.0641 167.87 49.9215V48.7498C167.487 49.3338 166.979 49.7755 166.355 50.0821C165.731 50.3851 165.038 50.5384 164.278 50.5384C163.413 50.5384 162.628 50.3486 161.924 49.969C161.219 49.5893 160.664 49.0564 160.259 48.3738C159.858 47.6912 159.657 46.9173 159.657 46.0522C159.657 45.1871 159.858 44.4168 160.259 43.7415C160.661 43.0662 161.216 42.5406 161.913 42.1646C162.614 41.7923 163.402 41.6025 164.278 41.6025C165.059 41.6025 165.768 41.7594 166.395 42.0733C167.023 42.3873 167.534 42.8436 167.918 43.4386V41.6682H169.111V41.6755ZM166.206 49.0053C166.742 48.7206 167.162 48.319 167.458 47.8043C167.757 47.2896 167.903 46.7056 167.903 46.0522C167.903 45.3988 167.753 44.8184 167.458 44.311C167.162 43.8036 166.746 43.4057 166.213 43.121C165.68 42.8363 165.078 42.6939 164.402 42.6939C163.738 42.6939 163.139 42.8326 162.606 43.1137C162.073 43.3948 161.661 43.789 161.362 44.3037C161.066 44.8184 160.916 45.4024 160.916 46.0558C160.916 46.7092 161.066 47.2933 161.362 47.808C161.661 48.3227 162.073 48.7206 162.606 49.0089C163.139 49.2937 163.738 49.4397 164.402 49.4397C165.067 49.4397 165.669 49.29 166.206 49.0053Z" fill="white"/>
</svg>
