<svg class="emailSvg" viewBox="0 0 32 32" fill="none" xmlns="http://www.w3.org/2000/svg">
<path fill-rule="evenodd" clip-rule="evenodd" d="M4.46083 10.5641C4.42941 10.7424 4.41302 10.926 4.41302 11.1133V20.8867C4.41302 22.6226 5.81993 24.0295 7.55587 24.0295H24.4439C26.1799 24.0295 27.587 22.6224 27.5881 20.8875V11.1133C27.5881 10.9256 27.5716 10.7417 27.5401 10.5631L16.5576 19.9748C16.2367 20.2499 15.7631 20.2499 15.4421 19.9748L4.46083 10.5641ZM5.24738 8.98046L15.9999 18.1952L26.7531 8.97983C26.179 8.35908 25.3575 7.97048 24.4452 7.97048H7.55587C6.64322 7.97048 5.82151 8.35935 5.24738 8.98046ZM2.69873 11.1133C2.69873 8.43061 4.87315 6.25619 7.55587 6.25619H24.4452C27.1279 6.25619 29.3023 8.43061 29.3023 11.1133V20.888C29.3007 23.5691 27.1265 25.7438 24.4439 25.7438H7.55587C4.87315 25.7438 2.69873 23.5694 2.69873 20.8867V11.1133Z" fill="currentColor"/>
</svg>
