<svg class="headerSvg" viewBox="0 0 28 28" fill="none" xmlns="http://www.w3.org/2000/svg">
<path d="M11.2072 16.7592C12.2572 17.766 13.488 18.585 14.8484 19.166L15.4539 19.4238L17.3147 17.5338C17.7767 17.0648 18.4452 16.8618 19.0904 16.9972L23.5984 17.941C24.3614 18.1032 24.9062 18.7763 24.9062 19.5557V22.8013C24.9062 23.9622 23.9659 24.9025 22.805 24.9025H21.8075C17.2179 24.9025 12.6889 23.3823 9.26354 20.328C8.9812 20.0772 8.70704 19.817 8.43987 19.551L8.48304 19.5942C8.21587 19.327 7.95687 19.0528 7.70604 18.7705C4.65054 15.3463 3.13037 10.8173 3.13037 6.22767V5.23017C3.13037 4.06933 4.0707 3.129 5.23154 3.129H8.4772C9.25654 3.129 9.9297 3.67383 10.0919 4.43683L11.0369 8.94483C11.171 9.58883 10.9692 10.2585 10.5002 10.7205L8.6102 12.5813L8.86804 13.1868C9.44904 14.546 10.1992 15.7092 11.2072 16.7592Z" stroke="currentColor" stroke-width="1.5" stroke-miterlimit="10" stroke-linecap="round" stroke-linejoin="round"/>
<path d="M16.7847 2.42916C16.3705 2.42916 16.0347 2.76495 16.0347 3.17916C16.0347 3.59338 16.3705 3.92916 16.7847 3.92916V2.42916ZM24.0718 11.2163C24.0718 11.6305 24.4076 11.9663 24.8218 11.9663C25.236 11.9663 25.5718 11.6305 25.5718 11.2163H24.0718ZM16.7847 6.55916C16.3705 6.55916 16.0347 6.89495 16.0347 7.30916C16.0347 7.72338 16.3705 8.05916 16.7847 8.05916V6.55916ZM19.9418 11.2163C19.9418 11.6305 20.2776 11.9663 20.6918 11.9663C21.106 11.9663 21.4418 11.6305 21.4418 11.2163H19.9418ZM16.7847 3.92916C20.8096 3.92916 24.0718 7.19138 24.0718 11.2163H25.5718C25.5718 6.36295 21.638 2.42916 16.7847 2.42916V3.92916ZM16.7847 8.05916C18.5278 8.05916 19.9418 9.47236 19.9418 11.2163H21.4418C21.4418 8.64364 19.3559 6.55916 16.7847 6.55916V8.05916Z" fill="currentColor"/>
</svg>
