<svg class="socialMediaIcon" viewBox="0 0 40 40" fill="none" xmlns="http://www.w3.org/2000/svg">
<path d="M37.7645 5.82132C37.3166 5.29163 36.6458 5 35.8754 5C35.4566 5 35.0129 5.08522 34.557 5.25376L3.51938 16.7115C1.87225 17.3193 1.65041 18.2316 1.66468 18.7212C1.67895 19.2109 1.95393 20.1096 3.63408 20.6265C3.64415 20.6295 3.65422 20.6325 3.66429 20.6352L10.1023 22.4169L13.584 32.045C14.0587 33.3576 15.1243 34.173 16.3652 34.173C17.1477 34.173 17.9172 33.8559 18.5909 33.2564L22.573 29.7106L28.3489 34.2082C28.3494 34.2087 28.3503 34.209 28.3508 34.2095L28.4057 34.2523C28.4107 34.256 28.416 34.2601 28.4211 34.2639C29.0631 34.7454 29.7638 34.9997 30.4484 35H30.4486C31.7861 35 32.8511 34.0426 33.1613 32.5612L38.2468 8.27745C38.451 7.30274 38.2798 6.43056 37.7645 5.82132ZM12.2561 22.0785L24.677 15.9421L16.9429 23.8894C16.8162 24.0195 16.7264 24.1789 16.6822 24.3523L15.1909 30.1941L12.2561 22.0785ZM17.1354 31.728C17.0839 31.7737 17.0321 31.8145 16.9804 31.8521L18.364 26.4329L20.8808 28.3929L17.1354 31.728ZM36.1411 7.8649L31.0557 32.1489C31.0067 32.3813 30.8503 32.9221 30.4484 32.9221C30.2497 32.9221 30.0002 32.8174 29.7448 32.6272L23.1999 27.531C23.1991 27.5302 23.198 27.5294 23.1968 27.5288L19.3025 24.4962L30.487 13.0033C30.845 12.6354 30.8775 12.0719 30.5639 11.6677C30.25 11.2635 29.6813 11.1364 29.2161 11.3663L10.8207 20.4545L4.29511 18.649L35.3232 7.1948C35.5853 7.09795 35.7682 7.07766 35.8754 7.07766C35.9411 7.07766 36.0581 7.08523 36.1014 7.13691C36.1585 7.20427 36.2312 7.43395 36.1411 7.8649Z" fill="#3C4BDC"/>
</svg>
